<svg xmlns="http://www.w3.org/2000/svg" viewBox="0 0 100 100"><circle cx="50" cy="50" r="17.8"/><path d="M50 78.9c16 0 28.9-13 28.9-28.9 0-8.9-4-17.1-10.9-22.6l-5.3 6.7c4.9 3.9 7.7 9.7 7.7 15.9 0 11.2-9.1 20.4-20.4 20.4-11.2 0-20.4-9.1-20.4-20.4S38.8 29.6 50 29.6c.9 0 1.8.1 2.7.2l1.1-8.5q-1.95-.3-3.9-.3C33.9 21 21 34 21 49.9c.1 16.1 13 29 29 29"/><path d="M50 82.1c-7.3 0-14.1-2.4-19.8-6.9l-5.3 6.7c7.2 5.7 15.9 8.7 25.1 8.7 15.2 0 29-8.4 36-21.8l-7.5-3.9C72.9 75.5 62 82.1 50 82.1m-3.6-64c1.2-.1 2.4-.2 3.6-.2 17.7 0 32.1 14.4 32.1 32.1h8.5C90.6 27.6 72.4 9.4 50 9.4c-1.5 0-3 .1-4.5.2C24.9 11.9 9.4 29.3 9.4 50c0 4.4.7 8.7 2.1 12.8l8.1-2.7c-1.1-3.3-1.6-6.7-1.6-10.2-.1-16.3 12.2-30 28.4-31.8"/></svg>